<svg width="1280" height="300" viewBox="0 0 1280 300" fill="none" xmlns="http://www.w3.org/2000/svg">
<g clip-path="url(#clip0_8_8)">
<rect width="1280" height="300" rx="30" fill="#0D0D0F"/>
<path d="M920.429 193L943.981 103.4H973.421L996.973 193H979.565L974.701 173.288H942.701L937.837 193H920.429ZM946.669 157.672H970.733L959.853 114.024H957.549L946.669 157.672Z" fill="#F5F5F0"/>
<path d="M846.448 193V103.4H863.344V138.984H865.648L894.704 103.4H916.336L878.96 147.56L917.616 193H895.344L865.648 156.648H863.344V193H846.448Z" fill="#F5F5F0"/>
<path d="M766.323 193V103.4H783.219V138.984H785.523L814.579 103.4H836.211L798.835 147.56L837.491 193H815.219L785.523 156.648H783.219V193H766.323Z" fill="#F5F5F0"/>
<path d="M714.639 194.792C703.375 194.792 694.415 191.72 687.759 185.576C681.103 179.347 677.775 170.472 677.775 158.952V137.448C677.775 125.928 681.103 117.096 687.759 110.952C694.415 104.723 703.375 101.608 714.639 101.608C725.903 101.608 734.863 104.723 741.519 110.952C748.175 117.096 751.503 125.928 751.503 137.448V158.952C751.503 170.472 748.175 179.347 741.519 185.576C734.863 191.72 725.903 194.792 714.639 194.792ZM714.639 179.688C720.954 179.688 725.86 177.853 729.359 174.184C732.858 170.515 734.607 165.608 734.607 159.464V136.936C734.607 130.792 732.858 125.885 729.359 122.216C725.86 118.547 720.954 116.712 714.639 116.712C708.41 116.712 703.503 118.547 699.919 122.216C696.42 125.885 694.671 130.792 694.671 136.936V159.464C694.671 165.608 696.42 170.515 699.919 174.184C703.503 177.853 708.41 179.688 714.639 179.688Z" fill="#F5F5F0"/>
<path d="M572.741 193L560.965 103.4H577.733L586.437 181.224H588.741L600.005 103.4H629.189L640.453 181.224H642.757L651.461 103.4H668.229L656.453 193H627.269L615.749 113.384H613.445L601.925 193H572.741Z" fill="#F5F5F0"/>
<path d="M485.448 193V103.4H502.344V138.984H504.648L533.704 103.4H555.336L517.96 147.56L556.616 193H534.344L504.648 156.648H502.344V193H485.448Z" fill="#F5F5F0"/>
<path fill-rule="evenodd" clip-rule="evenodd" d="M332.063 138.272C328.702 136.392 324.559 138.817 324.552 142.668L324.418 215.12C324.415 216.954 325.406 218.645 327.008 219.538L346.699 230.512C352.941 233.99 360.556 233.911 366.723 230.303L376.83 224.391C378.377 223.486 379.329 221.828 379.329 220.035V192.727L403.362 209.374C404.46 210.134 405.893 210.21 407.066 209.571L427.567 198.391C430.82 196.617 432.844 193.207 432.844 189.501V183.727C432.844 182.851 432.39 182.037 431.645 181.578L408.576 167.362L431.279 147.465C432.373 146.506 433 145.123 433 143.669V120.601C433 116.801 428.961 114.364 425.599 116.135L405.319 126.822C404.492 127.258 403.767 127.865 403.194 128.604L357.082 188.035V155.222C357.082 153.394 356.094 151.708 354.498 150.816L332.063 138.272Z" fill="#F5F5F0"/>
<path d="M280.032 185.03L280.271 119.653C280.288 115.006 285.315 112.108 289.345 114.423L312.227 127.566C313.324 128.196 314 129.365 314 130.63V203.256C314 207.954 308.883 210.864 304.845 208.461L287.431 198.099C282.826 195.359 280.012 190.389 280.032 185.03Z" fill="#F5F5F0"/>
<path d="M311.649 116.421L296.519 107.877C292.378 105.539 292.423 99.5595 296.599 97.2839L345.499 70.6325C353.078 66.5018 362.243 66.531 369.796 70.7099L418.698 97.7675C422.874 100.078 422.861 106.087 418.675 108.38L360.705 140.133C359.2 140.958 357.378 140.961 355.87 140.142L341.333 132.244C338.527 130.72 338.516 126.696 341.314 125.158L379.858 103.958C380.547 103.579 380.557 102.592 379.876 102.199L363.901 92.9789C363.598 92.8045 363.227 92.7985 362.919 92.9633L318.946 116.503C316.66 117.727 313.907 117.696 311.649 116.421Z" fill="#F5F5F0"/>
<circle cx="389" cy="193" r="231" stroke="white" stroke-opacity="0.04" stroke-width="2"/>
<circle cx="317.5" cy="159.5" r="190.5" stroke="white" stroke-opacity="0.04" stroke-width="2"/>
<circle cx="409.5" cy="152.5" r="190.5" stroke="white" stroke-opacity="0.04" stroke-width="2"/>
</g>
<defs>
<clipPath id="clip0_8_8">
<rect width="1280" height="300" rx="30" fill="white"/>
</clipPath>
</defs>
</svg>
